<svg xmlns="http://www.w3.org/2000/svg" width="46" height="46" viewBox="0 0 46 46" fill="none"><path d="M23 44.9727C35.1352 44.9727 44.9727 35.1352 44.9727 23C44.9727 10.8648 35.1352 1.02734 23 1.02734C10.8648 1.02734 1.02734 10.8648 1.02734 23C1.02734 35.1352 10.8648 44.9727 23 44.9727Z" fill="url(#paint0_linear_770_607)"></path><path opacity="0.49" d="M44.9629 22.3626L34.3606 11.7602C32.8235 10.2397 30.7537 9.67317 28.6446 9.56885H17.3556C15.2462 9.67317 13.1768 10.2395 11.6396 11.7602C10.1172 13.2665 9.53027 15.3265 9.4248 17.4155V28.5846C9.53027 30.6736 10.1173 32.7336 11.6396 34.2397L22.3627 44.9628C22.5745 44.9688 22.7869 44.9727 23.0001 44.9727C35.1353 44.9727 44.9728 35.1352 44.9728 23C44.9728 22.7867 44.9689 22.5744 44.9629 22.3626ZM17.4982 33.8863C16.0672 33.8471 14.445 33.4908 13.4255 32.4019C12.3661 31.2698 11.9716 29.9022 11.9251 28.3724C11.9251 28.3724 11.8537 20.3129 11.9251 17.6275C11.9657 16.0977 12.3661 14.7301 13.4255 13.5982C14.445 12.5089 16.0672 12.153 17.4982 12.1137C20.2479 12.0382 25.7516 12.0382 28.5014 12.1137C29.9323 12.153 31.5545 12.5092 32.5741 13.5982C33.6335 14.7301 34.0338 16.0977 34.0744 17.6275V17.763L31.1942 14.8824C31.0613 14.7495 30.9037 14.6442 30.7301 14.5723C30.5566 14.5004 30.3706 14.4634 30.1827 14.4634C29.9949 14.4634 29.8089 14.5004 29.6353 14.5723C29.4618 14.6441 29.3041 14.7495 29.1712 14.8823C29.0384 15.0151 28.933 15.1728 28.8611 15.3464C28.7893 15.5199 28.7523 15.7059 28.7523 15.8938C28.7522 16.2732 28.9029 16.637 29.1712 16.9053L34.0748 21.8088V23.9601L28.0574 17.9427C26.7146 16.6088 24.8978 15.8615 23.0051 15.8646C21.1123 15.8677 19.298 16.621 17.9596 17.9594C16.6212 19.2978 15.8679 21.1121 15.8648 23.0049C15.8617 24.8976 16.6089 26.7145 17.9429 28.0573L23.8274 33.9419C21.5017 33.9476 19.0575 33.9291 17.4982 33.8863Z" fill="url(#paint1_linear_770_607)"></path><path d="M36.5755 17.4155C36.4701 15.3265 35.883 13.2665 34.3607 11.7602C32.8236 10.2397 30.7538 9.67317 28.6447 9.56885H17.3556C15.2462 9.67317 13.1768 10.2395 11.6396 11.7602C10.1172 13.2665 9.53027 15.3265 9.4248 17.4155V28.5845C9.53027 30.6736 10.1173 32.7336 11.6396 34.2397C13.1768 35.7603 15.2465 36.3268 17.3556 36.4312H28.6446C30.754 36.3268 32.8235 35.7606 34.3606 34.2397C35.883 32.7336 36.47 30.6736 36.5754 28.5845L36.5755 17.4155ZM11.9259 17.6276C11.9665 16.0977 12.3669 14.7301 13.4263 13.5982C14.4458 12.5089 16.068 12.153 17.499 12.1137C20.2487 12.0383 25.7524 12.0383 28.5022 12.1137C29.9331 12.153 31.5553 12.5092 32.5748 13.5982C33.6343 14.7301 34.0346 16.0977 34.0752 17.6276V28.3724C34.0346 29.9023 33.6343 31.2699 32.5748 32.4019C31.5553 33.4912 29.9331 33.8471 28.5022 33.8863C25.7524 33.9618 20.2487 33.9618 17.499 33.8863C16.068 33.8471 14.4458 33.4908 13.4263 32.4019C12.3669 31.2699 11.9724 29.9022 11.9259 28.3724C11.9259 28.3724 11.8541 20.3129 11.9259 17.6276Z" fill="white"></path><path d="M30.1829 17.3242C30.9729 17.3242 31.6133 16.6838 31.6133 15.8938C31.6133 15.1038 30.9729 14.4634 30.1829 14.4634C29.3929 14.4634 28.7524 15.1038 28.7524 15.8938C28.7524 16.6838 29.3929 17.3242 30.1829 17.3242Z" fill="white"></path><path d="M23.0002 15.8478C21.5857 15.8478 20.2029 16.2673 19.0268 17.0532C17.8506 17.8391 16.9339 18.9561 16.3926 20.2629C15.8512 21.5698 15.7096 23.0078 15.9856 24.3952C16.2615 25.7826 16.9427 27.057 17.9429 28.0572C18.9431 29.0574 20.2175 29.7386 21.6049 30.0146C22.9923 30.2906 24.4303 30.149 25.7372 29.6076C27.0441 29.0663 28.1611 28.1496 28.947 26.9735C29.7329 25.7974 30.1523 24.4146 30.1523 23C30.1524 22.0608 29.9674 21.1308 29.608 20.263C29.2485 19.3953 28.7217 18.6068 28.0576 17.9427C27.3934 17.2785 26.605 16.7517 25.7373 16.3923C24.8695 16.0328 23.9395 15.8478 23.0002 15.8478ZM23.0002 27.6143C22.0876 27.6143 21.1955 27.3437 20.4367 26.8366C19.6779 26.3296 19.0865 25.609 18.7372 24.7658C18.388 23.9227 18.2966 22.9949 18.4747 22.0998C18.6527 21.2048 19.0922 20.3826 19.7375 19.7373C20.3828 19.0919 21.205 18.6525 22.1 18.4744C22.9951 18.2964 23.9229 18.3878 24.766 18.737C25.6092 19.0863 26.3298 19.6777 26.8369 20.4365C27.3439 21.1953 27.6145 22.0874 27.6145 23C27.6145 24.2238 27.1284 25.3975 26.263 26.2628C25.3977 27.1281 24.224 27.6143 23.0002 27.6143Z" fill="white"></path><defs><linearGradient id="paint0_linear_770_607" x1="7.46296" y1="38.537" x2="38.537" y2="7.46296" gradientUnits="userSpaceOnUse"><stop stop-color="#D6B43D"></stop><stop offset="0.051" stop-color="#DBA93F"></stop><stop offset="0.143" stop-color="#E88A45"></stop><stop offset="0.164" stop-color="#EB8246"></stop><stop offset="0.211" stop-color="#E7774D"></stop><stop offset="0.294" stop-color="#DD5860"></stop><stop offset="0.31" stop-color="#DB5164"></stop><stop offset="0.464" stop-color="#D2466C"></stop><stop offset="0.567" stop-color="#C93B73"></stop><stop offset="0.607" stop-color="#CB3179"></stop><stop offset="0.733" stop-color="#A23394"></stop><stop offset="0.856" stop-color="#7F35AB"></stop><stop offset="0.91" stop-color="#7D35AB"></stop><stop offset="0.94" stop-color="#7537AA"></stop><stop offset="0.964" stop-color="#673AA9"></stop><stop offset="0.985" stop-color="#533DA8"></stop><stop offset="1" stop-color="#4041A6"></stop></linearGradient><linearGradient id="paint1_linear_770_607" x1="11.6999" y1="11.6998" x2="38.5371" y2="38.5371" gradientUnits="userSpaceOnUse"><stop stop-color="#1D1D1B"></stop><stop offset="0.369" stop-color="#1D1D1B" stop-opacity="0.856"></stop><stop offset="0.75" stop-color="#1D1D1B" stop-opacity="0.429"></stop><stop offset="1" stop-color="#1D1D1B" stop-opacity="0"></stop></linearGradient></defs></svg>