<svg xmlns="http://www.w3.org/2000/svg" width="46" height="46" viewBox="0 0 46 46" fill="none"><path d="M23 44.9727C35.1352 44.9727 44.9727 35.1352 44.9727 23C44.9727 10.8648 35.1352 1.02734 23 1.02734C10.8648 1.02734 1.02734 10.8648 1.02734 23C1.02734 35.1352 10.8648 44.9727 23 44.9727Z" fill="#CCFFFF"></path><path opacity="0.49" d="M44.9727 23C44.9727 22.9763 44.972 22.9527 44.9719 22.929L29.5984 7.58242C29.4246 7.4096 29.1894 7.3128 28.9443 7.3133H23.9906C23.8695 7.31292 23.7496 7.33639 23.6376 7.38238C23.5255 7.42836 23.4237 7.49596 23.3378 7.58132C23.2519 7.66667 23.1837 7.7681 23.137 7.87983C23.0903 7.99155 23.0661 8.11138 23.0657 8.23246V21.2911L20.1866 18.4121C20.0129 18.2393 19.7777 18.1424 19.5327 18.1428C13.8335 18.1428 9.19678 22.7508 9.19678 28.4151C9.19665 29.7655 9.46446 31.1025 9.9847 32.3487C10.5049 33.5949 11.2673 34.7254 12.2275 35.6749L21.4718 44.9189C21.9768 44.954 22.4862 44.9727 23.0001 44.9727C35.1352 44.9727 44.9727 35.1352 44.9727 23Z" fill="url(#paint0_linear_770_648)"></path><path fill-rule="evenodd" clip-rule="evenodd" d="M30.5501 8.91938C30.6712 8.91894 30.7912 8.94237 30.9032 8.98834C31.0153 9.03431 31.1172 9.1019 31.2031 9.18727C31.2889 9.27263 31.3572 9.37409 31.4038 9.48584C31.4505 9.59759 31.4747 9.71744 31.475 9.83854C31.475 13.1314 34.1708 15.8104 37.4843 15.8104C37.7289 15.8097 37.9637 15.9061 38.1371 16.0785C38.3106 16.2509 38.4084 16.4851 38.4092 16.7296V21.6525C38.4088 21.7736 38.3846 21.8935 38.3379 22.0052C38.2912 22.1169 38.223 22.2184 38.1371 22.3037C38.0512 22.3891 37.9494 22.4567 37.8373 22.5026C37.7253 22.5486 37.6053 22.5721 37.4842 22.5717C35.3897 22.5765 33.3261 22.0667 31.4749 21.087V30.021C31.4749 35.6848 26.8375 40.2927 21.1384 40.2927C15.4393 40.2927 10.8025 35.6848 10.8025 30.021C10.8025 24.3573 15.4392 19.7486 21.1384 19.7486C21.3829 19.7481 21.6176 19.8446 21.791 20.0169C21.9644 20.1893 22.0623 20.4233 22.0633 20.6678V25.5907C22.0629 25.7118 22.0387 25.8316 21.992 25.9434C21.9454 26.0551 21.8771 26.1565 21.7912 26.2419C21.7054 26.3272 21.6035 26.3948 21.4915 26.4408C21.3795 26.4868 21.2595 26.5103 21.1384 26.5099C20.4449 26.5142 19.7682 26.7239 19.1937 27.1123C18.6192 27.5008 18.1726 28.0506 17.9102 28.6926C17.6478 29.3346 17.5814 30.0399 17.7193 30.7195C17.8573 31.3992 18.1934 32.0228 18.6854 32.5116C19.1773 33.0005 19.803 33.3327 20.4835 33.4664C21.164 33.6001 21.8689 33.5293 22.5092 33.2629C23.1495 32.9965 23.6966 32.5464 24.0814 31.9695C24.4663 31.3926 24.6716 30.7146 24.6716 30.021V9.83854C24.672 9.71745 24.6962 9.59763 24.7429 9.4859C24.7896 9.37418 24.8579 9.27274 24.9437 9.18739C25.0296 9.10204 25.1315 9.03444 25.2435 8.98846C25.3555 8.94247 25.4755 8.919 25.5966 8.91938H30.5501Z" fill="#FF0B53"></path><path fill-rule="evenodd" clip-rule="evenodd" d="M28.9442 7.3133C29.0653 7.31286 29.1853 7.33629 29.2974 7.38226C29.4094 7.42823 29.5113 7.49582 29.5972 7.58119C29.6831 7.66655 29.7513 7.76801 29.7979 7.87976C29.8446 7.99151 29.8688 8.11136 29.8691 8.23246C29.8691 11.5255 32.5648 14.2045 35.8784 14.2045C35.9994 14.2041 36.1194 14.2275 36.2314 14.2735C36.3434 14.3195 36.4453 14.3871 36.5312 14.4725C36.6171 14.5578 36.6853 14.6593 36.732 14.771C36.7786 14.8827 36.8029 15.0025 36.8032 15.1236V20.0469C36.8029 20.168 36.7786 20.2878 36.732 20.3995C36.6853 20.5112 36.617 20.6127 36.5312 20.698C36.4453 20.7834 36.3434 20.8509 36.2314 20.8969C36.1194 20.9429 35.9994 20.9664 35.8784 20.966C33.7839 20.9708 31.7203 20.461 29.8691 19.4813V28.415C29.8691 34.0787 25.2317 38.6867 19.5326 38.6867C13.8335 38.6867 9.19678 34.0787 9.19678 28.415C9.19678 22.7512 13.8334 18.1427 19.5327 18.1427C19.7772 18.142 20.012 18.2384 20.1854 18.4108C20.3589 18.5831 20.4568 18.8173 20.4576 19.0618V23.9844C20.4572 24.1055 20.433 24.2253 20.3863 24.337C20.3396 24.4487 20.2714 24.5502 20.1855 24.6355C20.0996 24.7209 19.9978 24.7885 19.8858 24.8345C19.7738 24.8805 19.6538 24.9039 19.5327 24.9036C18.8392 24.9079 18.1626 25.1175 17.5881 25.506C17.0136 25.8944 16.567 26.4443 16.3046 27.0863C16.0422 27.7282 15.9759 28.4335 16.1138 29.1131C16.2518 29.7928 16.5879 30.4163 17.0798 30.9052C17.5718 31.394 18.1974 31.7262 18.8779 31.8599C19.5584 31.9936 20.2632 31.9228 20.9035 31.6564C21.5438 31.39 22.0909 30.9399 22.4757 30.363C22.8606 29.7861 23.0659 29.1081 23.0659 28.4146V8.23246C23.0667 7.98797 23.1645 7.75378 23.3379 7.58141C23.5113 7.40904 23.746 7.3126 23.9905 7.3133H28.9442Z" fill="#00F0E9"></path><path d="M29.869 28.4149V19.4809C31.7202 20.4606 33.7838 20.9705 35.8783 20.9656C36.1228 20.9664 36.3575 20.87 36.531 20.6977C36.7044 20.5255 36.8023 20.2913 36.8032 20.0469V15.7711C35.94 15.6733 35.1082 15.3898 34.3649 14.9402C33.6216 14.4906 32.9844 13.8855 32.497 13.1663C31.786 12.6859 31.1868 12.0579 30.7404 11.325C30.2939 10.5921 30.0107 9.7716 29.91 8.91938H25.5966C25.4755 8.91898 25.3555 8.94245 25.2435 8.98843C25.1315 9.03441 25.0296 9.10201 24.9437 9.18736C24.8578 9.27272 24.7896 9.37416 24.7429 9.48589C24.6962 9.59762 24.672 9.71745 24.6716 9.83854V30.021C24.6659 30.8171 24.3917 31.588 23.8935 32.2089C23.3952 32.8298 22.702 33.2644 21.926 33.4424C21.1501 33.6204 20.3368 33.5314 19.6177 33.1897C18.8986 32.848 18.3159 32.2737 17.9638 31.5597C17.2503 31.21 16.6767 30.6284 16.3369 29.9101C15.9971 29.1918 15.9114 28.3794 16.0937 27.606C16.276 26.8326 16.7156 26.1441 17.3404 25.6531C17.9652 25.1622 18.7382 24.898 19.5327 24.9039C19.6538 24.9042 19.7738 24.8807 19.8858 24.8347C19.9978 24.7887 20.0997 24.7211 20.1856 24.6357C20.2714 24.5503 20.3396 24.4488 20.3863 24.3371C20.4329 24.2253 20.4571 24.1055 20.4574 23.9844V19.7716C15.0747 20.1214 10.8027 24.5842 10.8027 30.021C10.8013 32.345 11.5949 34.5996 13.0518 36.4102C14.889 37.8864 17.1758 38.6896 19.5326 38.6866C25.2317 38.6867 29.869 34.0787 29.869 28.4149Z" fill="#1B1633"></path><defs><linearGradient id="paint0_linear_770_648" x1="15.1085" y1="15.8107" x2="38.186" y2="38.8882" gradientUnits="userSpaceOnUse"><stop stop-color="#1D1D1B"></stop><stop offset="0.369" stop-color="#1D1D1B" stop-opacity="0.856"></stop><stop offset="0.75" stop-color="#1D1D1B" stop-opacity="0.429"></stop><stop offset="1" stop-color="#1D1D1B" stop-opacity="0"></stop></linearGradient></defs></svg>