<svg xmlns="http://www.w3.org/2000/svg" width="46" height="46" viewBox="0 0 46 46" fill="none"><path d="M23 44.9727C35.1352 44.9727 44.9727 35.1352 44.9727 23C44.9727 10.8648 35.1352 1.02734 23 1.02734C10.8648 1.02734 1.02734 10.8648 1.02734 23C1.02734 35.1352 10.8648 44.9727 23 44.9727Z" fill="#005FAB"></path><path opacity="0.49" d="M44.9727 23C44.9737 21.0722 44.7213 19.1527 44.222 17.2907L36.8525 9.92093C36.8103 9.88075 36.757 9.85429 36.6995 9.84503C36.6419 9.83578 36.583 9.84416 36.5303 9.86907C33.8594 10.824 21.3027 15.36 4.68754 21.4647C4.61236 21.4902 4.55 21.5438 4.5136 21.6143C4.47719 21.6848 4.4696 21.7667 4.49242 21.8427L27.1661 44.5765C37.3087 42.6294 44.9727 33.7105 44.9727 23Z" fill="url(#paint0_linear_770_666)"></path><path fill-rule="evenodd" clip-rule="evenodd" d="M36.5303 9.86911C36.773 9.7668 36.9812 9.97141 36.9465 10.2101L31.4659 35.9252C31.4534 35.9746 31.4288 36.0201 31.3944 36.0576C31.36 36.0952 31.3169 36.1237 31.2689 36.1405C31.2208 36.1574 31.1694 36.1621 31.1191 36.1543C31.0687 36.1465 31.0211 36.1263 30.9805 36.0957L22.3435 29.9568L17.522 34.5271C17.481 34.5593 17.4331 34.5816 17.3821 34.5922C17.3311 34.6027 17.2783 34.6014 17.2279 34.5882C17.1775 34.575 17.1309 34.5503 17.0916 34.516C17.0524 34.4817 17.0216 34.4388 17.0017 34.3907L13.7062 24.807L4.68758 22.0445C4.62681 22.0241 4.57399 21.9851 4.53656 21.9331C4.49914 21.8811 4.479 21.8186 4.479 21.7545C4.479 21.6904 4.49914 21.6279 4.53656 21.5758C4.57399 21.5238 4.62681 21.4848 4.68758 21.4644C21.3027 15.3597 33.8594 10.8237 36.5304 9.86876L36.5303 9.86911ZM30.7722 14.5415C30.7378 14.5368 25.6042 17.7473 15.4058 24.1249L17.5565 31.0824L18.0078 26.6826C26.7833 18.8726 31.1768 14.9506 31.1884 14.9166C31.3967 14.7119 30.9111 14.5601 30.7722 14.5415Z" fill="white"></path><defs><linearGradient id="paint0_linear_770_666" x1="15.4345" y1="10.6736" x2="40.9168" y2="36.156" gradientUnits="userSpaceOnUse"><stop stop-color="#1D1D1B"></stop><stop offset="0.369" stop-color="#1D1D1B" stop-opacity="0.856"></stop><stop offset="0.75" stop-color="#1D1D1B" stop-opacity="0.429"></stop><stop offset="1" stop-color="#1D1D1B" stop-opacity="0"></stop></linearGradient></defs></svg>