<svg xmlns="http://www.w3.org/2000/svg" width="46" height="46" viewBox="0 0 46 46" fill="none"><path d="M23 44.9727C35.1352 44.9727 44.9727 35.1352 44.9727 23C44.9727 10.8648 35.1352 1.02734 23 1.02734C10.8648 1.02734 1.02734 10.8648 1.02734 23C1.02734 35.1352 10.8648 44.9727 23 44.9727Z" fill="#2DB93E"></path><path opacity="0.49" d="M44.9312 24.3343L37.8785 17.2815C37.731 17.1341 37.5645 17.0071 37.3835 16.9036C32.4685 14.0999 25.7486 12.7871 19.335 12.7871C15.8597 12.7871 12.3532 13.135 9.00541 14.1001C8.72803 14.1787 8.46964 14.3132 8.24613 14.4953C8.02262 14.6774 7.83869 14.9033 7.70566 15.1591C7.57263 15.4149 7.4933 15.6952 7.47253 15.9827C7.45177 16.2703 7.49002 16.5591 7.58493 16.8313C7.67742 17.1174 7.83542 17.3779 8.04635 17.5921L11.5743 21.1191C11.1805 21.2144 10.7874 21.317 10.3951 21.4268C10.1502 21.4904 9.92125 21.6044 9.72281 21.7614C9.52437 21.9184 9.36082 22.1151 9.24258 22.3388C9.12434 22.5626 9.05401 22.8085 9.03605 23.0609C9.0181 23.3133 9.05292 23.5667 9.1383 23.8049C9.21681 24.0505 9.35058 24.2748 9.52933 24.4606L12.9755 27.9068C12.2733 28.0226 11.5741 28.1544 10.8781 28.3023C10.036 28.4693 9.46833 29.2357 9.72128 30.1026C9.7779 30.3111 9.8859 30.5019 10.0354 30.6578L24.3096 44.9328C35.3933 44.281 44.2673 35.4146 44.9312 24.3343Z" fill="url(#paint0_linear_770_626)"></path><path fill-rule="evenodd" clip-rule="evenodd" d="M19.335 12.7871C25.7485 12.7871 32.4684 14.1001 37.3834 16.904C38.3655 17.4655 38.8376 18.6672 38.318 19.7262C37.7591 20.8654 36.3844 21.1049 35.3403 20.5202C29.0857 16.8595 17.8934 15.9805 10.6518 17.9611C9.44767 18.2981 8.059 18.2126 7.58545 16.8313C7.49052 16.5591 7.45226 16.2703 7.47301 15.9827C7.49377 15.6952 7.57309 15.4149 7.70611 15.1591C7.83914 14.9033 8.02306 14.6774 8.24657 14.4953C8.47008 14.3132 8.72846 14.1787 9.00585 14.1001C12.3533 13.1348 15.8597 12.7871 19.335 12.7871Z" fill="white"></path><path fill-rule="evenodd" clip-rule="evenodd" d="M18.9345 20.2332C24.5977 20.2332 30.0804 21.6543 34.3899 24.2349C35.2833 24.7637 35.7316 26.0115 35.1063 26.932C34.5985 27.679 33.4883 27.7992 32.6075 27.3157C27.0363 24.2583 19.0135 22.7454 11.7709 24.7237C10.7257 25.0084 9.56413 25.0443 9.13734 23.8051C9.05197 23.5669 9.01715 23.3135 9.03511 23.0611C9.05307 22.8087 9.12341 22.5628 9.24165 22.339C9.35989 22.1153 9.52344 21.9187 9.72187 21.7616C9.9203 21.6046 10.1493 21.4906 10.3942 21.4269C13.1724 20.6375 16.0463 20.2358 18.9345 20.2332Z" fill="white"></path><path fill-rule="evenodd" clip-rule="evenodd" d="M19.0935 27.3695C23.6221 27.3519 28.0299 28.2593 32.0103 30.5406C32.5516 30.8714 32.874 31.1691 32.874 31.952C32.855 33.2282 31.4747 33.4813 30.5592 32.9555C24.8152 29.642 18.0016 29.5118 11.6825 30.9718C10.8791 31.1574 9.98669 31.0147 9.72056 30.1025C9.46761 29.2355 10.0353 28.4688 10.8775 28.3021C13.5771 27.7313 16.3316 27.3801 19.0935 27.3695Z" fill="white"></path><defs><linearGradient id="paint0_linear_770_626" x1="11.3552" y1="11.3682" x2="38.5295" y2="38.5426" gradientUnits="userSpaceOnUse"><stop stop-color="#1D1D1B"></stop><stop offset="0.369" stop-color="#1D1D1B" stop-opacity="0.856"></stop><stop offset="0.75" stop-color="#1D1D1B" stop-opacity="0.429"></stop><stop offset="1" stop-color="#1D1D1B" stop-opacity="0"></stop></linearGradient></defs></svg>